<svg width="14" height="14" viewBox="0 0 14 14" fill="none" xmlns="http://www.w3.org/2000/svg">
<path d="M13 6.66667C13.0023 7.54658 12.7967 8.41459 12.4 9.2C11.9296 10.1412 11.2065 10.9328 10.3116 11.4862C9.41677 12.0396 8.3855 12.3329 7.33333 12.3333C6.45342 12.3356 5.58541 12.1301 4.8 11.7333L1 13L2.26667 9.2C1.86995 8.41459 1.66437 7.54658 1.66667 6.66667C1.66707 5.61451 1.96041 4.58324 2.51381 3.68837C3.06722 2.7935 3.85884 2.07038 4.8 1.6C5.58541 1.20329 6.45342 0.99771 7.33333 1H7.66667C9.05623 1.07666 10.3687 1.66318 11.3528 2.64724C12.3368 3.63131 12.9233 4.94377 13 6.33334V6.66667Z" stroke="#94A3B8" stroke-width="2" stroke-linecap="round" stroke-linejoin="round"/>
</svg>
