<svg width="16" height="16" viewBox="0 0 16 16" fill="none" xmlns="http://www.w3.org/2000/svg">
<path d="M8.65988 15.2C8.21983 15.2 7.77978 15.2 7.33973 15.2C7.28452 15.1816 7.23092 15.1544 7.17411 15.1464C4.24659 14.7215 2.25837 13.115 1.21265 10.3602C1.00703 9.81939 0.93422 9.22812 0.799805 8.66006C0.799805 8.22001 0.799805 7.77996 0.799805 7.33991C0.818207 7.28471 0.84701 7.2311 0.853411 7.1743C1.17905 4.30038 3.22247 1.88011 6.00598 1.09042C6.44283 0.966406 6.89488 0.895198 7.33973 0.799988C7.77978 0.799988 8.21983 0.799988 8.65988 0.799988C8.71508 0.81839 8.76869 0.847193 8.8255 0.853594C11.6994 1.17923 14.1197 3.22266 14.9094 6.00697C15.0334 6.44381 15.1046 6.89586 15.1998 7.34071C15.1998 7.78076 15.1998 8.22081 15.1998 8.66086C15.1814 8.71607 15.1526 8.76967 15.1462 8.82648C14.8206 11.7004 12.7771 14.1207 9.99283 14.9104C9.55678 15.0336 9.10473 15.1048 8.65988 15.2ZM2.06154 8.60886C2.05514 9.31613 2.51439 10.6763 2.93684 11.2011C2.97605 11.2499 3.07446 11.3012 3.12486 11.2852C3.64172 11.1187 4.15458 10.9395 4.65543 10.7683C4.55622 10.0466 4.45781 9.33134 4.3586 8.60886C3.59852 8.60886 2.84323 8.60886 2.06154 8.60886ZM13.9573 8.61766C13.1668 8.61766 12.3947 8.61766 11.6402 8.61766C11.5394 9.35374 11.441 10.0682 11.345 10.7707C11.8402 10.9379 12.3275 11.1083 12.8195 11.2628C12.8891 11.2844 13.0252 11.2531 13.0596 11.2003C13.5644 10.4195 13.8717 9.56736 13.9573 8.61766ZM4.65223 5.24688C4.09537 5.06526 3.55131 4.88684 2.99285 4.70442C2.46399 5.52051 2.12955 6.39741 2.04314 7.38072C2.83923 7.38072 3.61052 7.38072 4.3594 7.38072C4.45861 6.65984 4.55382 5.96216 4.65223 5.24688ZM11.6402 7.38472C12.4075 7.38472 13.1716 7.38472 13.9573 7.38472C13.8685 6.39501 13.5364 5.51651 13.0052 4.70362C12.4379 4.89004 11.8858 5.07166 11.3474 5.24928C11.4458 5.96536 11.541 6.66304 11.6402 7.38472ZM7.38534 8.61526C6.77567 8.61526 6.1996 8.61526 5.57553 8.61526C5.66915 9.27933 5.75956 9.9202 5.84997 10.5571C6.40523 10.5099 6.88848 10.4691 7.38534 10.4275C7.38534 9.81779 7.38534 9.22412 7.38534 8.61526ZM8.62307 8.61286C8.62307 9.24173 8.62307 9.83459 8.62307 10.4299C9.13113 10.4715 9.61438 10.5115 10.1528 10.5555C10.2417 9.9066 10.3297 9.26653 10.4201 8.61206C9.7808 8.61286 9.20554 8.61286 8.62307 8.61286ZM7.38774 7.38712C7.38774 6.77505 7.38774 6.19899 7.38774 5.60052C6.87568 5.55652 6.37562 5.51251 5.83956 5.46611C5.75075 6.12778 5.66675 6.75105 5.58114 7.38632C6.21881 7.38712 6.79407 7.38712 7.38774 7.38712ZM8.61027 7.38072C9.21994 7.38072 9.8032 7.38072 10.4233 7.38072C10.3321 6.73025 10.2449 6.10458 10.1552 5.46451C9.60398 5.51411 9.11113 5.55812 8.61027 5.60292C8.61027 6.20539 8.61027 6.78145 8.61027 7.38072ZM8.71348 2.24575C8.68068 2.26175 8.64868 2.27855 8.61587 2.29455C8.61587 2.98663 8.61587 3.67951 8.61587 4.40039C9.00552 4.36358 9.37516 4.32918 9.84561 4.28518C9.44156 3.55789 9.07752 2.90182 8.71348 2.24575ZM7.38374 4.40199C7.38374 3.67151 7.38374 2.98023 7.38374 2.28975C7.35253 2.27535 7.32053 2.26095 7.28933 2.24655C6.92369 2.90422 6.55804 3.56189 6.1548 4.28758C6.62605 4.33158 6.98929 4.36518 7.38374 4.40199ZM6.158 11.7292C6.56445 12.4549 6.92769 13.1046 7.29173 13.7534C7.32293 13.739 7.35333 13.7246 7.38454 13.7102C7.38454 13.0301 7.38454 12.3501 7.38454 11.6356C7.00129 11.6652 6.63725 11.6932 6.158 11.7292ZM8.61187 13.7078C8.64628 13.7222 8.68148 13.7374 8.71588 13.7518C9.07832 13.0974 9.44076 12.4429 9.83681 11.7268C9.36075 11.6924 8.99111 11.666 8.61107 11.6388C8.61187 12.3613 8.61187 13.0349 8.61187 13.7078ZM3.81854 3.6227C3.82814 3.66351 3.83854 3.70351 3.84814 3.74431C4.23379 3.85713 4.61943 3.96914 4.98907 4.07715C5.2427 3.52109 5.47392 3.01303 5.70595 2.50418C5.68435 2.47697 5.66274 2.44977 5.64114 2.42257C5.03307 2.82261 4.42581 3.22266 3.81854 3.6227ZM11.0129 4.08115C11.3898 3.96834 11.7722 3.85393 12.1939 3.72751C11.6106 3.17065 11.0073 2.75621 10.2753 2.46737C10.5257 3.01383 10.7553 3.51709 11.0129 4.08115ZM3.82494 12.2893C4.40661 12.8429 5.00347 13.2486 5.72515 13.5334C5.47072 12.9789 5.2371 12.4701 4.99387 11.9404C4.61303 12.054 4.24499 12.1637 3.82494 12.2893ZM10.2801 13.539C11.0033 13.2286 11.6178 12.8453 12.1659 12.2845C11.7986 12.1765 11.4778 12.0732 11.1514 11.9932C11.0873 11.9772 10.9593 12.0316 10.9329 12.0868C10.7121 12.5509 10.5089 13.0229 10.2801 13.539Z" fill="#64748B"/>
</svg>
