<svg width="256" height="32" viewBox="0 0 256 32" fill="none" xmlns="http://www.w3.org/2000/svg">
<path d="M51.821 26.6938L47.0343 10.5688H46.9146C46.9545 10.9677 46.9944 11.546 47.0343 12.3039C47.0742 13.0419 47.1141 13.8396 47.154 14.6972C47.1939 15.5349 47.2138 16.3227 47.2138 17.0607V26.6938H42.6665V5.33337H49.5473L54.304 21.1293H54.4237L59.33 5.33337H66.1809V26.6938H61.4541V16.941C61.4541 16.2629 61.4641 15.515 61.484 14.6972C61.5239 13.8596 61.5538 13.0718 61.5737 12.3338C61.6136 11.576 61.6435 10.9976 61.6635 10.5987H61.5438L56.6076 26.6938H51.821Z" fill="white"/>
<path d="M77.9411 9.97044C79.4968 9.97044 80.833 10.2596 81.9499 10.838C83.0868 11.3965 83.9543 12.2341 84.5527 13.351C85.1709 14.4479 85.4801 15.8141 85.4801 17.4496V19.7831H75.0991C75.139 20.8601 75.488 21.7177 76.1461 22.3559C76.8043 22.9941 77.7417 23.3132 78.9583 23.3132C80.0153 23.3132 80.9727 23.2135 81.8303 23.014C82.6879 22.8146 83.5754 22.4955 84.4928 22.0567V25.7963C83.6951 26.2151 82.8375 26.5143 81.92 26.6938C81.0026 26.8932 79.8757 26.9929 78.5394 26.9929C76.8841 26.9929 75.4082 26.6938 74.1118 26.0954C72.8354 25.4971 71.8282 24.5797 71.0902 23.3431C70.3722 22.0866 70.0132 20.5011 70.0132 18.5864C70.0132 16.6318 70.3423 15.0263 71.0005 13.7698C71.6587 12.4934 72.5861 11.546 73.7827 10.9278C74.9794 10.2895 76.3655 9.97044 77.9411 9.97044ZM78.0309 13.4707C77.253 13.4707 76.6049 13.72 76.0863 14.2186C75.5877 14.6972 75.2885 15.4651 75.1888 16.5222H80.843C80.843 15.9438 80.7333 15.4252 80.5139 14.9665C80.3145 14.5078 80.0054 14.1488 79.5865 13.8895C79.1677 13.6103 78.6492 13.4707 78.0309 13.4707Z" fill="white"/>
<path d="M108.532 9.97044C110.407 9.97044 111.823 10.4491 112.78 11.4064C113.757 12.3438 114.246 13.8696 114.246 15.9837V26.6938H109.22V17.3897C109.22 16.1931 109.031 15.3255 108.652 14.787C108.293 14.2286 107.734 13.9493 106.976 13.9493C105.919 13.9493 105.171 14.3682 104.733 15.2058C104.294 16.0235 104.074 17.2003 104.074 18.736V26.6938H99.0484V17.3897C99.0484 16.6119 98.9686 15.9737 98.8091 15.4751C98.6495 14.9565 98.4102 14.5776 98.0911 14.3382C97.772 14.079 97.3531 13.9493 96.8346 13.9493C96.0966 13.9493 95.5083 14.1588 95.0695 14.5776C94.6507 14.9765 94.3515 15.5648 94.172 16.3427C94.0125 17.1205 93.9327 18.0778 93.9327 19.2146V26.6938H88.8768V10.2696H92.7061L93.4241 12.3338H93.6335C93.9526 11.8153 94.3515 11.3865 94.8302 11.0474C95.3088 10.6884 95.8573 10.4192 96.4756 10.2397C97.0939 10.0602 97.762 9.97044 98.48 9.97044C99.6766 9.97044 100.684 10.1699 101.502 10.5688C102.319 10.9677 102.957 11.546 103.416 12.3039H103.715C104.234 11.5261 104.922 10.9477 105.78 10.5688C106.637 10.1699 107.555 9.97044 108.532 9.97044Z" fill="white"/>
<path d="M125.591 9.97044C127.147 9.97044 128.483 10.2596 129.6 10.838C130.737 11.3965 131.605 12.2341 132.203 13.351C132.821 14.4479 133.13 15.8141 133.13 17.4496V19.7831H122.749C122.789 20.8601 123.138 21.7177 123.796 22.3559C124.455 22.9941 125.392 23.3132 126.609 23.3132C127.666 23.3132 128.623 23.2135 129.481 23.014C130.338 22.8146 131.226 22.4955 132.143 22.0567V25.7963C131.345 26.2151 130.488 26.5143 129.57 26.6938C128.653 26.8932 127.526 26.9929 126.19 26.9929C124.534 26.9929 123.058 26.6938 121.762 26.0954C120.486 25.4971 119.478 24.5797 118.74 23.3431C118.022 22.0866 117.663 20.5011 117.663 18.5864C117.663 16.6318 117.993 15.0263 118.651 13.7698C119.309 12.4934 120.236 11.546 121.433 10.9278C122.63 10.2895 124.016 9.97044 125.591 9.97044ZM125.681 13.4707C124.903 13.4707 124.255 13.72 123.737 14.2186C123.238 14.6972 122.939 15.4651 122.839 16.5222H128.493C128.493 15.9438 128.384 15.4252 128.164 14.9665C127.965 14.5078 127.656 14.1488 127.237 13.8895C126.818 13.6103 126.299 13.4707 125.681 13.4707Z" fill="white"/>
<path d="M149.683 26.6938H144.657V5.33337H157.073V9.46185H149.683V14.3083H156.534V18.4368H149.683V26.6938Z" fill="white"/>
<path d="M167.931 9.94052C170.065 9.94052 171.72 10.4391 172.897 11.4363C174.074 12.4136 174.662 13.8696 174.662 15.8042V26.6938H171.162L170.174 24.48H170.055C169.596 25.0583 169.117 25.537 168.619 25.9159C168.14 26.2949 167.582 26.5641 166.943 26.7237C166.325 26.9032 165.557 26.9929 164.64 26.9929C163.683 26.9929 162.815 26.8035 162.037 26.4245C161.279 26.0456 160.681 25.4672 160.242 24.6894C159.803 23.9115 159.584 22.9243 159.584 21.7276C159.584 19.9725 160.192 18.6761 161.409 17.8385C162.645 17.0008 164.45 16.5321 166.824 16.4324L169.636 16.3427V15.864C169.636 15.0662 169.427 14.4878 169.008 14.1288C168.609 13.7698 168.05 13.5903 167.332 13.5903C166.614 13.5903 165.867 13.71 165.089 13.9493C164.311 14.1687 163.523 14.4479 162.725 14.787L161.2 11.4363C162.097 10.9577 163.114 10.5887 164.251 10.3294C165.388 10.0702 166.614 9.94052 167.931 9.94052ZM168.11 19.2745C166.854 19.3144 165.976 19.5437 165.478 19.9626C164.979 20.3614 164.73 20.9099 164.73 21.608C164.73 22.2262 164.909 22.675 165.268 22.9542C165.627 23.2334 166.086 23.373 166.644 23.373C167.482 23.373 168.19 23.1237 168.768 22.6251C169.347 22.1066 169.636 21.4085 169.636 20.531V19.2146L168.11 19.2745Z" fill="white"/>
<path d="M185.979 26.9929C184.343 26.9929 182.927 26.7037 181.731 26.1254C180.554 25.527 179.646 24.6096 179.008 23.373C178.39 22.1165 178.081 20.511 178.081 18.5565C178.081 16.562 178.43 14.9366 179.128 13.6801C179.846 12.4036 180.833 11.4663 182.09 10.8679C183.346 10.2696 184.782 9.97044 186.398 9.97044C187.475 9.97044 188.442 10.0801 189.3 10.2995C190.177 10.5189 190.955 10.7981 191.633 11.1372L190.167 14.9366C189.469 14.6574 188.821 14.428 188.223 14.2485C187.624 14.069 187.016 13.9793 186.398 13.9793C185.72 13.9793 185.141 14.1488 184.662 14.4878C184.184 14.8069 183.815 15.3055 183.556 15.9837C183.316 16.6618 183.197 17.5094 183.197 18.5266C183.197 19.5437 183.326 20.3814 183.586 21.0396C183.845 21.6778 184.214 22.1564 184.692 22.4755C185.171 22.7947 185.749 22.9542 186.428 22.9542C187.305 22.9542 188.123 22.8246 188.881 22.5653C189.659 22.306 190.396 21.957 191.095 21.5182V25.6467C190.416 26.0855 189.679 26.4245 188.881 26.6639C188.083 26.8832 187.116 26.9929 185.979 26.9929Z" fill="white"/>
<path d="M202.115 22.9841C202.633 22.9841 203.112 22.9343 203.551 22.8345C203.99 22.7348 204.438 22.6052 204.897 22.4456V26.1553C204.359 26.3946 203.74 26.5941 203.042 26.7536C202.344 26.9132 201.516 26.9929 200.559 26.9929C199.542 26.9929 198.635 26.8334 197.837 26.5143C197.059 26.1752 196.441 25.6068 195.982 24.809C195.543 23.9913 195.324 22.8645 195.324 21.4285V14.0391H193.23V11.9449L195.743 10.3294L197.119 6.85912H200.35V10.2696H204.718V14.0391H200.35V21.249C200.35 21.8274 200.509 22.2661 200.828 22.5653C201.148 22.8445 201.576 22.9841 202.115 22.9841Z" fill="white"/>
<path d="M223.304 18.4368C223.304 19.813 223.115 21.0296 222.736 22.0866C222.377 23.1437 221.838 24.0412 221.12 24.7791C220.422 25.5171 219.575 26.0755 218.578 26.4544C217.6 26.8134 216.473 26.9929 215.197 26.9929C214.04 26.9929 212.963 26.8134 211.966 26.4544C210.989 26.0755 210.141 25.527 209.423 24.809C208.725 24.0711 208.177 23.1736 207.778 22.1165C207.379 21.0395 207.179 19.813 207.179 18.4368C207.179 16.6219 207.498 15.0862 208.137 13.8297C208.795 12.5732 209.732 11.6158 210.949 10.9577C212.165 10.2995 213.611 9.97044 215.287 9.97044C216.862 9.97044 218.248 10.2995 219.445 10.9577C220.642 11.6158 221.579 12.5732 222.257 13.8297C222.955 15.0862 223.304 16.6219 223.304 18.4368ZM212.295 18.4368C212.295 19.454 212.395 20.3116 212.594 21.0096C212.794 21.7077 213.113 22.2362 213.552 22.5952C213.99 22.9343 214.559 23.1038 215.257 23.1038C215.975 23.1038 216.543 22.9343 216.962 22.5952C217.381 22.2362 217.69 21.7077 217.889 21.0096C218.089 20.3116 218.189 19.454 218.189 18.4368C218.189 17.4197 218.089 16.572 217.889 15.8939C217.69 15.2158 217.371 14.7072 216.932 14.3682C216.513 14.0291 215.945 13.8596 215.227 13.8596C214.21 13.8596 213.462 14.2485 212.983 15.0263C212.524 15.7842 212.295 16.921 212.295 18.4368Z" fill="white"/>
<path d="M236.317 9.97044C236.576 9.97044 236.865 9.99038 237.184 10.0303C237.503 10.0502 237.753 10.0801 237.932 10.12L237.513 14.8468C237.334 14.8069 237.104 14.777 236.825 14.7571C236.546 14.7172 236.237 14.6972 235.898 14.6972C235.419 14.6972 234.94 14.7571 234.462 14.8767C233.983 14.9765 233.544 15.1659 233.146 15.4452C232.747 15.7044 232.428 16.0834 232.188 16.582C231.949 17.0606 231.829 17.6889 231.829 18.4667V26.6938H226.773V10.2696H230.573L231.351 12.9621H231.56C231.879 12.4036 232.278 11.905 232.757 11.4663C233.235 11.0075 233.774 10.6485 234.372 10.3893C234.99 10.11 235.639 9.97044 236.317 9.97044Z" fill="white"/>
<path d="M238.409 10.2696H243.794L246.825 17.6366C246.904 17.876 246.964 18.1253 247.004 18.3846C247.064 18.6239 247.114 18.8832 247.154 19.1624C247.194 19.4217 247.223 19.7009 247.243 20H247.333C247.393 19.5413 247.463 19.1225 247.543 18.7435C247.642 18.3447 247.742 17.9857 247.842 17.6666L250.735 10.2696H256L249.333 26.4356C248.894 27.6522 248.336 28.6693 247.658 29.4871C247 30.3247 246.202 30.953 245.265 31.3718C244.347 31.7906 243.27 32 242.034 32C241.535 32 241.096 31.9701 240.717 31.9103C240.338 31.8704 240.009 31.8205 239.73 31.7607V27.7818C239.949 27.8217 240.209 27.8616 240.508 27.9015C240.827 27.9414 241.156 27.9613 241.495 27.9613C242.133 27.9613 242.662 27.8317 243.081 27.5724C243.499 27.3131 243.848 26.9641 244.128 26.5253C244.407 26.1065 244.636 25.6478 244.816 25.1492L244.995 24.6406L238.409 10.2696Z" fill="white"/>
<path d="M12.6773 26.2539L32.1253 26.0998L27.285 17.1964C27.6832 16.3324 28.0044 15.3657 28.2325 14.325C28.5312 13.2458 28.7014 12.0285 28.7078 10.7341C28.7142 9.43973 28.5536 8.21921 28.2646 7.14002C27.3974 2.99026 25.0366 0.0128475 22.2455 0C22.0046 0 21.7669 0.0224832 21.5325 0.0642377C18.3174 0.642377 15.7993 5.16792 15.7736 10.6763C15.7479 16.1847 18.2274 20.7327 21.4361 21.3398V21.4072L17.1547 21.3879C13.6088 21.3719 10.7534 16.5669 10.7791 10.6538C10.7823 10.1271 10.808 9.60996 10.853 9.10569L3.38533 9.16672L0 14.9128L9.28877 32L28.7367 31.8458L30.4294 28.9712L11.0971 28.9294L12.6773 26.2539ZM18.3848 10.6891C18.4009 6.74817 20.1225 3.55877 22.2295 3.5684L22.6149 3.57162C21.2049 4.86279 20.2252 7.5672 20.2092 10.6956C20.1963 13.8272 21.1503 16.5412 22.5506 17.842L22.1652 17.8388C20.0614 17.8324 18.3688 14.6301 18.3848 10.6891Z" fill="white"/>
</svg>
