<svg width="22" height="20" viewBox="0 0 22 20" fill="none" xmlns="http://www.w3.org/2000/svg">
<path fill-rule="evenodd" clip-rule="evenodd" d="M9.625 1.90476C5.32178 1.90476 1.83333 5.52912 1.83333 10H0C0 4.47715 4.30926 0 9.625 0C14.9407 0 19.25 4.47715 19.25 10H17.4167C17.4167 5.52912 13.9282 1.90476 9.625 1.90476Z" fill="black"/>
<path fill-rule="evenodd" clip-rule="evenodd" d="M1.83333 10C1.83333 14.4709 5.32178 18.0952 9.625 18.0952V20C4.30926 20 2.32358e-07 15.5228 0 10C0 4.47715 4.30926 0 9.625 0V1.90476C5.32178 1.90476 1.83333 5.52912 1.83333 10Z" fill="black"/>
<path d="M14.6667 9.52381H22L18.3333 15.2381L14.6667 9.52381Z" fill="black"/>
</svg>
