<svg width="20" height="20" viewBox="0 0 20 20" fill="none" xmlns="http://www.w3.org/2000/svg">
<path fill-rule="evenodd" clip-rule="evenodd" d="M15.7141 13.8185C16.5827 12.5031 17.0883 10.9275 17.0883 9.23369C17.0883 4.62875 13.3511 0.896667 8.74237 0.896667C4.1336 0.896667 0.396484 4.62875 0.396484 9.23369C0.396484 13.8386 4.1336 17.5707 8.74237 17.5707C10.9401 17.5707 12.9396 16.7221 14.4302 15.3348L18.203 19.1034L19.604 17.704L15.7141 13.8185ZM8.74237 2.8763C5.22646 2.8763 2.37722 5.72313 2.37722 9.23369C2.37722 12.7442 5.22646 15.5911 8.74237 15.5911C12.2583 15.5911 15.1075 12.7442 15.1075 9.23369C15.1075 5.72313 12.2583 2.8763 8.74237 2.8763Z" fill="#0F172A"/>
</svg>
