<svg width="18" height="16" viewBox="0 0 18 16" fill="none" xmlns="http://www.w3.org/2000/svg">
<path d="M17.6227 1.73319C17.5429 2.07944 17.4574 2.42486 17.384 2.77355C17.0166 4.51209 16.6516 6.25145 16.2867 7.99081C15.9225 9.72446 15.5583 11.4581 15.1933 13.1918C15.1062 13.6073 15.0223 14.0236 14.9253 14.4374C14.7249 15.2937 14.0707 15.3719 13.4882 14.9539C12.254 14.0684 11.0287 13.1706 9.7993 12.2785C9.58667 12.1245 9.54838 12.127 9.35122 12.3021C8.66444 12.914 7.97684 13.5266 7.29088 14.1393C7.20452 14.2166 7.11979 14.2875 6.99352 14.2297C6.86968 14.1735 6.87376 14.0643 6.88272 13.9568C6.93486 13.3205 6.98944 12.6834 7.04158 12.0471C7.07987 11.5836 7.12142 11.12 7.15157 10.6565C7.16542 10.4414 7.22244 10.276 7.39597 10.1188C9.65999 8.07961 11.9159 6.03067 14.1717 3.98336C14.2996 3.86686 14.4243 3.74303 14.5318 3.60779C14.6304 3.48314 14.5831 3.38131 14.4275 3.38945C14.2996 3.39679 14.1595 3.43426 14.052 3.50188C12.1757 4.66607 10.3036 5.83596 8.43062 7.00504C7.29902 7.71137 6.16661 8.41526 5.03745 9.12485C4.91199 9.20388 4.80038 9.21936 4.65944 9.17292C3.48059 8.78757 2.29847 8.412 1.12044 8.02421C0.822261 7.92645 0.528159 7.80669 0.377441 7.49466C0.377441 7.44985 0.377441 7.40505 0.377441 7.36024C0.503718 7.10687 0.709019 6.9529 0.971348 6.85187C5.43176 5.12637 9.89299 3.39841 14.3542 1.67128C15.0369 1.40732 15.7172 1.13603 16.4032 0.880217C16.9523 0.674915 17.5168 0.860664 17.6024 1.47168C17.604 1.48146 17.6154 1.48879 17.6227 1.49775C17.6227 1.57596 17.6227 1.65417 17.6227 1.73319Z" fill="#64748B"/>
</svg>
