<svg width="14" height="14" viewBox="0 0 14 14" fill="none" xmlns="http://www.w3.org/2000/svg">
<path d="M5.97 8.07502C5.97 7.81502 6.01 7.57502 6.08 7.36502C6.15 7.15502 6.27 6.96502 6.43 6.77502C6.59 6.58502 6.81 6.40502 7.08 6.21502C7.33 6.03502 7.52 5.87502 7.67 5.74502C7.82 5.60502 7.93 5.47502 7.99 5.33502C8.06 5.19502 8.1 5.04502 8.1 4.87502C8.1 4.62502 8 4.42502 7.81 4.29502C7.62 4.16502 7.36 4.09502 7.02 4.09502C6.68 4.09502 6.35 4.14502 6.02 4.25502C5.7 4.35502 5.37 4.49502 5.02 4.67502L4.39 3.39502C4.78 3.17502 5.2 2.99502 5.66 2.86502C6.12 2.73502 6.62 2.66502 7.16 2.66502C7.99 2.66502 8.64 2.86502 9.1 3.26502C9.56 3.66502 9.79 4.17502 9.79 4.78502C9.79 5.11502 9.74 5.39502 9.63 5.63502C9.53 5.87502 9.37 6.09502 9.16 6.30502C8.95 6.51502 8.7 6.72502 8.38 6.95502C8.15 7.12502 7.97 7.26502 7.84 7.38502C7.71 7.50502 7.63 7.62502 7.58 7.73502C7.54 7.84502 7.52 7.98502 7.52 8.15502V8.50502H5.97V8.07502ZM5.78 10.505C5.78 10.135 5.88 9.87502 6.08 9.73502C6.28 9.58502 6.52 9.51502 6.81 9.51502C7.09 9.51502 7.33 9.58502 7.53 9.73502C7.73 9.88502 7.83 10.145 7.83 10.505C7.83 10.855 7.73 11.115 7.53 11.265C7.33 11.425 7.09 11.495 6.81 11.495C6.52 11.495 6.28 11.415 6.08 11.265C5.88 11.115 5.78 10.855 5.78 10.505Z" fill="#F97316"/>
<path d="M6.86 13.855C3.08 13.855 0 10.785 0 7.00502C0 3.22502 3.08 0.14502 6.86 0.14502C10.64 0.14502 13.72 3.22502 13.72 7.00502C13.72 10.785 10.64 13.855 6.86 13.855ZM6.86 1.12502C3.62 1.12502 0.98 3.76502 0.98 7.00502C0.98 10.245 3.62 12.885 6.86 12.885C10.1 12.885 12.74 10.245 12.74 7.00502C12.74 3.76502 10.1 1.12502 6.86 1.12502Z" fill="#F97316"/>
</svg>
