<svg width="16" height="16" viewBox="0 0 16 16" fill="none" xmlns="http://www.w3.org/2000/svg">
<path d="M15.0468 0.808481C13.2613 2.84032 11.4758 4.8727 9.68225 6.91361C11.7669 9.6684 13.8403 12.4083 15.9388 15.1817C15.8204 15.1876 15.7458 15.1945 15.6706 15.1945C14.2013 15.1951 12.7324 15.1924 11.263 15.1988C11.0967 15.1993 10.9933 15.1529 10.8898 15.0165C9.72384 13.481 8.54984 11.9519 7.37797 10.4212C7.31985 10.3455 7.25854 10.2719 7.1775 10.1706C7.07301 10.2879 6.98024 10.3903 6.8896 10.4937C5.57218 11.9972 4.25316 13.4996 2.94054 15.0079C2.81898 15.1476 2.69636 15.2031 2.51082 15.1999C1.80546 15.1887 1.09957 15.1951 0.349956 15.1951C0.408602 15.1162 0.440058 15.0676 0.477379 15.0245C2.26557 12.9691 4.0543 10.9138 5.84462 8.85961C5.94006 8.75032 6.02589 8.67408 5.8974 8.5072C3.97486 6.00352 2.06031 3.49344 0.14256 0.984955C0.1223 0.958297 0.0924432 0.938037 0.0668519 0.914579C0.0343296 0.750901 0.158554 0.810614 0.226264 0.810614C1.15555 0.807948 2.08537 0.808481 3.01518 0.808481C3.69709 0.808481 4.37845 0.808481 5.06036 0.808481C6.21196 2.3365 7.36304 3.86398 8.52744 5.40905C9.90618 3.85278 11.2545 2.33063 12.6034 0.808481C13.4175 0.808481 14.2322 0.808481 15.0468 0.808481ZM2.89949 2.18935C2.94694 2.26239 2.9672 2.29917 2.99226 2.3317C3.70722 3.26578 4.42271 4.19933 5.13766 5.13341C7.29426 7.94899 9.45033 10.7651 11.6096 13.5791C11.665 13.6511 11.7477 13.7502 11.8213 13.7529C12.2307 13.7699 12.6412 13.7609 13.0923 13.7609C13.0059 13.6404 12.9515 13.5615 12.8945 13.4858C12.0457 12.3646 11.1964 11.2439 10.3476 10.1227C8.39309 7.54219 6.43962 4.9612 4.48242 2.38288C4.42324 2.30504 4.3326 2.20107 4.25316 2.19788C3.81491 2.17975 3.37666 2.18935 2.89949 2.18935Z" fill="#64748B"/>
</svg>
